{"asset":{"version":"2.0","generator":"THREE.GLTFExporter r175"},"scenes":[{"name":"AuxScene","nodes":[13]}],"scene":0,"nodes":[{"mesh":0},{"mesh":1},{"mesh":2},{"mesh":3},{"mesh":4},{"mesh":5},{"mesh":6},{"mesh":7},{"mesh":8},{"matrix":[0.15643955335985565,0,-0.15643955335985565,0,0,-0.22123893805309736,0,0,0.15643955335985565,0,0.15643955335985565,0,0,0,0,1],"children":[0,1,2,3,4,5,6,7,8]},{"children":[9]},{"matrix":[1,0,0,0,0,1,0,0,0,0,1,0,-35.60955347923284,10.508849893787268,34.983795303091505,1],"children":[10]},{"children":[11]},{"children":[12]}],"bufferViews":[{"buffer":0,"byteOffset":0,"byteLength":36144,"target":34962,"byteStride":12},{"buffer":0,"byteOffset":36144,"byteLength":24096,"target":34962,"byteStride":8},{"buffer":0,"byteOffset":60240,"byteLength":36144,"target":34962,"byteStride":12},{"buffer":0,"byteOffset":96384,"byteLength":11952,"target":34962,"byteStride":12},{"buffer":0,"byteOffset":108336,"byteLength":7968,"target":34962,"byteStride":8},{"buffer":0,"byteOffset":116304,"byteLength":11952,"target":34962,"byteStride":12},{"buffer":0,"byteOffset":128256,"byteLength":46512,"target":34962,"byteStride":12},{"buffer":0,"byteOffset":174768,"byteLength":31008,"target":34962,"byteStride":8},{"buffer":0,"byteOffset":205776,"byteLength":46512,"target":34962,"byteStride":12},{"buffer":0,"byteOffset":252288,"byteLength":27504,"target":34962,"byteStride":12},{"buffer":0,"byteOffset":279792,"byteLength":18336,"target":34962,"byteStride":8},{"buffer":0,"byteOffset":298128,"byteLength":27504,"target":34962,"byteStride":12},{"buffer":0,"byteOffset":325632,"byteLength":8496,"target":34962,"byteStride":12},{"buffer":0,"byteOffset":334128,"byteLength":5664,"target":34962,"byteStride":8},{"buffer":0,"byteOffset":339792,"byteLength":8496,"target":34962,"byteStride":12},{"buffer":0,"byteOffset":348288,"byteLength":11952,"target":34962,"byteStride":12},{"buffer":0,"byteOffset":360240,"byteLength":7968,"target":34962,"byteStride":8},{"buffer":0,"byteOffset":368208,"byteLength":11952,"target":34962,"byteStride":12},{"buffer":0,"byteOffset":380160,"byteLength":38736,"target":34962,"byteStride":12},{"buffer":0,"byteOffset":418896,"byteLength":25824,"target":34962,"byteStride":8},{"buffer":0,"byteOffset":444720,"byteLength":38736,"target":34962,"byteStride":12},{"buffer":0,"byteOffset":483456,"byteLength":36144,"target":34962,"byteStride":12},{"buffer":0,"byteOffset":519600,"byteLength":24096,"target":34962,"byteStride":8},{"buffer":0,"byteOffset":543696,"byteLength":36144,"target":34962,"byteStride":12},{"buffer":0,"byteOffset":579840,"byteLength":11952,"target":34962,"byteStride":12},{"buffer":0,"byteOffset":591792,"byteLength":7968,"target":34962,"byteStride":8},{"buffer":0,"byteOffset":599760,"byteLength":11952,"target":34962,"byteStride":12}],"buffers":[{"byteLength":611712,"uri":"data:application/octet-stream;base64,"}],"accessors":[{"bufferView":0,"componentType":5126,"count":3012,"max":[71.25,95,17.600000381469727],"min":[0,0,-0.6000000238418579],"type":"VEC3"},{"bufferView":1,"componentType":5126,"count":3012,"max":[93.24263763427734,95],"min":[0,-16.600000381469727],"type":"VEC2"},{"bufferView":2,"componentType":5126,"count":3012,"max":[1,1,1],"min":[-1,-1,-1],"type":"VEC3"},{"bufferView":3,"componentType":5126,"count":996,"max":[71.25,95,17.600000381469727],"min":[47.5,71.25,-0.6000000238418579],"type":"VEC3"},{"bufferView":4,"componentType":5126,"count":996,"max":[93.24263763427734,95],"min":[47.5,-16.600000381469727],"type":"VEC2"},{"bufferView":5,"componentType":5126,"count":996,"max":[1,1,1],"min":[-1,-1,-1],"type":"VEC3"},{"bufferView":6,"componentType":5126,"count":3876,"max":[166.25,95,17.600000381469727],"min":[95,0,-0.6000000238418579],"type":"VEC3"},{"bufferView":7,"componentType":5126,"count":3876,"max":[166.25,95],"min":[1.7573587894439697,-16.600000381469727],"type":"VEC2"},{"bufferView":8,"componentType":5126,"count":3876,"max":[1,1,1],"min":[-1,-1,-1],"type":"VEC3"},{"bufferView":9,"componentType":5126,"count":2292,"max":[261.25,47.5,17.600000381469727],"min":[190,0,-0.6000000238418579],"type":"VEC3"},{"bufferView":10,"componentType":5126,"count":2292,"max":[261.25,47.5],"min":[1.7573587894439697,-16.600000381469727],"type":"VEC2"},{"bufferView":11,"componentType":5126,"count":2292,"max":[1,1,1],"min":[-1,-1,-1],"type":"VEC3"},{"bufferView":12,"componentType":5126,"count":708,"max":[261.25,71.25,17.600000381469727],"min":[237.5,47.5,-0.6000000238418579],"type":"VEC3"},{"bufferView":13,"componentType":5126,"count":708,"max":[261.25,71.25],"min":[47.5,-16.600000381469727],"type":"VEC2"},{"bufferView":14,"componentType":5126,"count":708,"max":[1,1,1],"min":[-1,-1,-1],"type":"VEC3"},{"bufferView":15,"componentType":5126,"count":996,"max":[237.5,95,17.600000381469727],"min":[190,71.25,-0.6000000238418579],"type":"VEC3"},{"bufferView":16,"componentType":5126,"count":996,"max":[237.5,95],"min":[71.25,-16.600000381469727],"type":"VEC2"},{"bufferView":17,"componentType":5126,"count":996,"max":[1,1,1],"min":[-1,-1,-1],"type":"VEC3"},{"bufferView":18,"componentType":5126,"count":3228,"max":[356.25,95,17.600000381469727],"min":[285,0,-0.6000000238418579],"type":"VEC3"},{"bufferView":19,"componentType":5126,"count":3228,"max":[356.25,95],"min":[1.7573587894439697,-16.600000381469727],"type":"VEC2"},{"bufferView":20,"componentType":5126,"count":3228,"max":[1,1,1],"min":[-1,-1,-1],"type":"VEC3"},{"bufferView":21,"componentType":5126,"count":3012,"max":[451.25,95,17.600000381469727],"min":[380,0,-0.6000000238418579],"type":"VEC3"},{"bufferView":22,"componentType":5126,"count":3012,"max":[451.25,95],"min":[1.7573587894439697,-16.600000381469727],"type":"VEC2"},{"bufferView":23,"componentType":5126,"count":3012,"max":[1,1,1],"min":[-1,-1,-1],"type":"VEC3"},{"bufferView":24,"componentType":5126,"count":996,"max":[451.25,95,17.600000381469727],"min":[427.5,71.25,-0.6000000238418579],"type":"VEC3"},{"bufferView":25,"componentType":5126,"count":996,"max":[451.25,95],"min":[71.25,-16.600000381469727],"type":"VEC2"},{"bufferView":26,"componentType":5126,"count":996,"max":[1,1,1],"min":[-1,-1,-1],"type":"VEC3"}],"materials":[{"pbrMetallicRoughness":{"baseColorFactor":[0.13843161502267545,0.09084171117479915,0.9646862478936612,1],"metallicFactor":1,"roughnessFactor":0.2},"doubleSided":true,"extensions":{"KHR_materials_clearcoat":{"clearcoatFactor":0.1,"clearcoatRoughnessFactor":0}}}],"meshes":[{"primitives":[{"mode":4,"attributes":{"POSITION":0,"TEXCOORD_0":1,"NORMAL":2},"material":0}]},{"primitives":[{"mode":4,"attributes":{"POSITION":3,"TEXCOORD_0":4,"NORMAL":5},"material":0}]},{"primitives":[{"mode":4,"attributes":{"POSITION":6,"TEXCOORD_0":7,"NORMAL":8},"material":0}]},{"primitives":[{"mode":4,"attributes":{"POSITION":9,"TEXCOORD_0":10,"NORMAL":11},"material":0}]},{"primitives":[{"mode":4,"attributes":{"POSITION":12,"TEXCOORD_0":13,"NORMAL":14},"material":0}]},{"primitives":[{"mode":4,"attributes":{"POSITION":15,"TEXCOORD_0":16,"NORMAL":17},"material":0}]},{"primitives":[{"mode":4,"attributes":{"POSITION":18,"TEXCOORD_0":19,"NORMAL":20},"material":0}]},{"primitives":[{"mode":4,"attributes":{"POSITION":21,"TEXCOORD_0":22,"NORMAL":23},"material":0}]},{"primitives":[{"mode":4,"attributes":{"POSITION":24,"TEXCOORD_0":25,"NORMAL":26},"material":0}]}],"extensionsUsed":["KHR_materials_clearcoat"]}